<svg xmlns="http://www.w3.org/2000/svg" xmlns:xlink="http://www.w3.org/1999/xlink" width="1024" zoomAndPan="magnify" viewBox="0 0 768 767.999994" height="1024" preserveAspectRatio="xMidYMid meet" version="1.0"><defs><clipPath id="4e9ef04d59"><path d="M 41.148438 47.226562 L 645.671875 47.226562 L 645.671875 651.75 L 41.148438 651.75 Z M 41.148438 47.226562 " clip-rule="nonzero"/></clipPath><clipPath id="3b9e513528"><path d="M 343.410156 47.226562 C 176.476562 47.226562 41.148438 182.550781 41.148438 349.488281 C 41.148438 516.421875 176.476562 651.75 343.410156 651.75 C 510.34375 651.75 645.671875 516.421875 645.671875 349.488281 C 645.671875 182.550781 510.34375 47.226562 343.410156 47.226562 Z M 343.410156 47.226562 " clip-rule="nonzero"/></clipPath><clipPath id="c0504d855c"><path d="M 0.148438 0.226562 L 604.671875 0.226562 L 604.671875 604.75 L 0.148438 604.75 Z M 0.148438 0.226562 " clip-rule="nonzero"/></clipPath><clipPath id="d3c5c913d1"><path d="M 302.410156 0.226562 C 135.476562 0.226562 0.148438 135.550781 0.148438 302.488281 C 0.148438 469.421875 135.476562 604.75 302.410156 604.75 C 469.34375 604.75 604.671875 469.421875 604.671875 302.488281 C 604.671875 135.550781 469.34375 0.226562 302.410156 0.226562 Z M 302.410156 0.226562 " clip-rule="nonzero"/></clipPath><clipPath id="3cd3f30a3d"><rect x="0" width="605" y="0" height="605"/></clipPath><clipPath id="214ca65eba"><path d="M 247.402344 0 L 515.902344 0 L 515.902344 768 L 247.402344 768 Z M 247.402344 0 " clip-rule="nonzero"/></clipPath><clipPath id="fc4be918c4"><path d="M 0 208.597656 L 19 208.597656 L 19 466 L 0 466 Z M 0 208.597656 " clip-rule="nonzero"/></clipPath><clipPath id="1062d1d45a"><path d="M 749 218 L 768 218 L 768 474.847656 L 749 474.847656 Z M 749 218 " clip-rule="nonzero"/></clipPath></defs><rect x="-76.8" width="921.6" fill="#ffffff" y="-76.799999" height="921.599993" fill-opacity="1"/><rect x="-76.8" width="921.6" fill="#ffffff" y="-76.799999" height="921.599993" fill-opacity="1"/><g clip-path="url(#4e9ef04d59)"><g clip-path="url(#3b9e513528)"><g transform="matrix(1, 0, 0, 1, 41, 47)"><g clip-path="url(#3cd3f30a3d)"><g clip-path="url(#c0504d855c)"><g clip-path="url(#d3c5c913d1)"><path fill="#ffffff" d="M 0.148438 0.226562 L 604.671875 0.226562 L 604.671875 604.75 L 0.148438 604.75 Z M 0.148438 0.226562 " fill-opacity="1" fill-rule="nonzero"/></g></g></g></g></g></g><g clip-path="url(#214ca65eba)"><path fill="#000000" d="M 329.757812 738.222656 C 363.996094 772.175781 424.449219 738.4375 427.339844 693.449219 C 429.691406 661.636719 421.988281 630.574219 417.707031 599.296875 C 262.351562 619.328125 201.253906 440.234375 285.355469 338.261719 C 309.644531 305.484375 339.386719 277.421875 368.8125 249.464844 C 372.449219 246.359375 372.984375 243.144531 372.449219 238.753906 C 360.144531 167.523438 360.679688 93.832031 401.550781 31.492188 C 407.757812 21.207031 415.035156 11.460938 426.054688 5.785156 C 445.742188 -4.285156 447.347656 -1.070312 455.265625 13.710938 C 509.082031 108.292969 477.199219 226.757812 402.621094 300.453125 C 398.449219 304.628906 397.164062 308.484375 398.023438 314.484375 C 401.445312 337.085938 404.011719 359.792969 406.902344 382.5 C 528.34375 375.859375 557.980469 549.703125 446.0625 590.621094 C 439.855469 593.40625 433.757812 593.085938 435.898438 601.761719 C 440.390625 645.785156 459.4375 695.269531 430.976562 734.902344 C 387.429688 800.347656 255.183594 762.109375 293.808594 676.527344 C 309.75 638.5 372.984375 647.175781 378.976562 688.414062 C 385.929688 720.871094 359.824219 743.683594 329.757812 738.222656 Z M 395.988281 436.699219 C 353.726562 442.804688 330.722656 504.074219 368.703125 530.316406 C 373.414062 533.636719 380.902344 538.457031 376.410156 544.882812 C 374.054688 548.3125 370.523438 547.988281 367.3125 546.382812 C 292.84375 513.5 317.347656 405.421875 389.78125 386.464844 C 386.894531 364.71875 384.113281 343.191406 381.222656 321.230469 C 343.882812 354.117188 304.398438 388.285156 285.460938 435.84375 C 248.121094 523.03125 332.113281 596.511719 415.675781 582.265625 C 409.042969 533.101562 402.515625 485.113281 395.988281 436.699219 Z M 389.140625 229.648438 C 429.800781 191.410156 468.640625 135.285156 460.402344 76.800781 C 456.121094 60.839844 442.851562 56.019531 429.691406 66.089844 C 387.75 106.257812 377.585938 174.378906 389.140625 229.648438 Z M 413.535156 435.949219 C 419.957031 483.1875 426.269531 529.996094 432.582031 577.015625 C 502.023438 557.203125 486.402344 431.449219 413.535156 435.949219 Z M 413.535156 435.949219 " fill-opacity="1" fill-rule="nonzero"/></g><g clip-path="url(#fc4be918c4)"><path fill="#000000" d="M 9.109375 208.675781 C 9.707031 208.675781 10.300781 208.734375 10.886719 208.851562 C 11.472656 208.96875 12.042969 209.140625 12.59375 209.371094 C 13.148438 209.597656 13.671875 209.878906 14.167969 210.210938 C 14.667969 210.542969 15.125 210.921875 15.550781 211.347656 C 15.972656 211.769531 16.351562 212.230469 16.683594 212.726562 C 17.015625 213.226562 17.292969 213.75 17.523438 214.304688 C 17.753906 214.859375 17.925781 215.429688 18.042969 216.015625 C 18.160156 216.601562 18.21875 217.195312 18.21875 217.796875 L 18.21875 456.394531 C 18.21875 456.992188 18.160156 457.585938 18.042969 458.175781 C 17.925781 458.761719 17.753906 459.332031 17.523438 459.882812 C 17.292969 460.4375 17.015625 460.964844 16.683594 461.460938 C 16.351562 461.960938 15.972656 462.421875 15.550781 462.84375 C 15.125 463.265625 14.667969 463.644531 14.167969 463.976562 C 13.671875 464.308594 13.148438 464.589844 12.59375 464.820312 C 12.042969 465.050781 11.472656 465.222656 10.886719 465.339844 C 10.300781 465.457031 9.707031 465.515625 9.109375 465.515625 C 8.511719 465.515625 7.917969 465.457031 7.332031 465.339844 C 6.746094 465.222656 6.175781 465.050781 5.621094 464.820312 C 5.070312 464.589844 4.546875 464.308594 4.046875 463.976562 C 3.550781 463.644531 3.089844 463.265625 2.667969 462.84375 C 2.246094 462.421875 1.867188 461.960938 1.535156 461.460938 C 1.203125 460.964844 0.921875 460.4375 0.691406 459.882812 C 0.464844 459.332031 0.292969 458.761719 0.175781 458.175781 C 0.0585938 457.585938 0 456.992188 0 456.394531 L 0 217.796875 C 0 217.195312 0.0585938 216.601562 0.175781 216.015625 C 0.292969 215.429688 0.464844 214.859375 0.691406 214.304688 C 0.921875 213.75 1.203125 213.226562 1.535156 212.726562 C 1.867188 212.230469 2.246094 211.769531 2.667969 211.347656 C 3.089844 210.921875 3.550781 210.542969 4.046875 210.210938 C 4.546875 209.878906 5.070312 209.597656 5.621094 209.371094 C 6.175781 209.140625 6.746094 208.96875 7.332031 208.851562 C 7.917969 208.734375 8.511719 208.675781 9.109375 208.675781 Z M 9.109375 208.675781 " fill-opacity="1" fill-rule="nonzero"/></g><path fill="#000000" d="M 42.714844 240.710938 L 44.34375 240.710938 C 44.890625 240.710938 45.429688 240.765625 45.960938 240.871094 C 46.496094 240.976562 47.015625 241.132812 47.519531 241.34375 C 48.023438 241.550781 48.5 241.808594 48.953125 242.109375 C 49.40625 242.414062 49.824219 242.757812 50.210938 243.144531 C 50.59375 243.527344 50.9375 243.949219 51.242188 244.402344 C 51.542969 244.855469 51.800781 245.332031 52.007812 245.835938 C 52.214844 246.339844 52.375 246.859375 52.480469 247.394531 C 52.585938 247.929688 52.640625 248.46875 52.640625 249.015625 L 52.640625 419.253906 C 52.640625 419.796875 52.585938 420.339844 52.480469 420.875 C 52.375 421.40625 52.214844 421.925781 52.007812 422.429688 C 51.800781 422.933594 51.542969 423.414062 51.242188 423.867188 C 50.9375 424.320312 50.59375 424.738281 50.210938 425.125 C 49.824219 425.511719 49.40625 425.855469 48.953125 426.15625 C 48.5 426.460938 48.023438 426.71875 47.519531 426.925781 C 47.015625 427.132812 46.496094 427.292969 45.960938 427.398438 C 45.429688 427.503906 44.890625 427.558594 44.34375 427.558594 L 42.714844 427.558594 C 42.171875 427.558594 41.632812 427.503906 41.097656 427.398438 C 40.5625 427.292969 40.046875 427.132812 39.542969 426.925781 C 39.039062 426.71875 38.5625 426.460938 38.109375 426.15625 C 37.65625 425.855469 37.234375 425.511719 36.851562 425.125 C 36.464844 424.738281 36.121094 424.320312 35.820312 423.867188 C 35.515625 423.414062 35.261719 422.933594 35.054688 422.429688 C 34.84375 421.925781 34.6875 421.40625 34.582031 420.875 C 34.476562 420.339844 34.421875 419.796875 34.421875 419.253906 L 34.421875 249.015625 C 34.421875 248.46875 34.476562 247.929688 34.582031 247.394531 C 34.6875 246.859375 34.84375 246.339844 35.054688 245.835938 C 35.261719 245.332031 35.515625 244.855469 35.820312 244.402344 C 36.121094 243.949219 36.464844 243.527344 36.851562 243.144531 C 37.234375 242.757812 37.65625 242.414062 38.109375 242.109375 C 38.5625 241.808594 39.039062 241.550781 39.542969 241.34375 C 40.046875 241.132812 40.5625 240.976562 41.097656 240.871094 C 41.632812 240.765625 42.171875 240.710938 42.714844 240.710938 Z M 42.714844 240.710938 " fill-opacity="1" fill-rule="nonzero"/><path fill="#000000" d="M 75.726562 265.085938 L 78.765625 265.085938 C 79.265625 265.085938 79.757812 265.136719 80.246094 265.234375 C 80.734375 265.332031 81.210938 265.476562 81.667969 265.664062 C 82.128906 265.855469 82.566406 266.089844 82.980469 266.367188 C 83.394531 266.644531 83.777344 266.960938 84.132812 267.3125 C 84.484375 267.664062 84.796875 268.050781 85.074219 268.464844 C 85.351562 268.878906 85.585938 269.316406 85.777344 269.777344 C 85.96875 270.238281 86.109375 270.714844 86.207031 271.203125 C 86.304688 271.691406 86.355469 272.1875 86.355469 272.683594 L 86.355469 396.953125 C 86.355469 397.453125 86.304688 397.945312 86.207031 398.433594 C 86.109375 398.921875 85.96875 399.398438 85.777344 399.859375 C 85.585938 400.320312 85.351562 400.757812 85.074219 401.171875 C 84.796875 401.589844 84.484375 401.972656 84.132812 402.324219 C 83.777344 402.675781 83.394531 402.992188 82.980469 403.269531 C 82.566406 403.546875 82.128906 403.78125 81.667969 403.972656 C 81.210938 404.164062 80.734375 404.304688 80.246094 404.402344 C 79.757812 404.5 79.265625 404.550781 78.765625 404.550781 L 75.726562 404.550781 C 75.226562 404.550781 74.734375 404.5 74.246094 404.402344 C 73.753906 404.304688 73.28125 404.164062 72.820312 403.972656 C 72.359375 403.78125 71.921875 403.546875 71.507812 403.269531 C 71.09375 402.992188 70.710938 402.675781 70.359375 402.324219 C 70.007812 401.972656 69.691406 401.589844 69.414062 401.171875 C 69.140625 400.757812 68.90625 400.320312 68.714844 399.859375 C 68.523438 399.398438 68.378906 398.921875 68.28125 398.433594 C 68.1875 397.945312 68.136719 397.453125 68.136719 396.953125 L 68.136719 272.683594 C 68.136719 272.1875 68.1875 271.691406 68.28125 271.203125 C 68.378906 270.714844 68.523438 270.238281 68.714844 269.777344 C 68.90625 269.316406 69.140625 268.878906 69.414062 268.464844 C 69.691406 268.050781 70.007812 267.664062 70.359375 267.3125 C 70.710938 266.960938 71.09375 266.644531 71.507812 266.367188 C 71.921875 266.089844 72.359375 265.855469 72.820312 265.664062 C 73.28125 265.476562 73.753906 265.332031 74.246094 265.234375 C 74.734375 265.136719 75.226562 265.085938 75.726562 265.085938 Z M 75.726562 265.085938 " fill-opacity="1" fill-rule="nonzero"/><path fill="#000000" d="M 107.660156 318.839844 L 115.707031 318.839844 C 116.039062 318.839844 116.371094 318.871094 116.699219 318.9375 C 117.027344 319.003906 117.34375 319.097656 117.652344 319.226562 C 117.960938 319.355469 118.253906 319.511719 118.53125 319.695312 C 118.808594 319.882812 119.066406 320.09375 119.300781 320.332031 C 119.539062 320.566406 119.75 320.824219 119.933594 321.101562 C 120.121094 321.378906 120.277344 321.671875 120.402344 321.980469 C 120.53125 322.289062 120.628906 322.609375 120.691406 322.9375 C 120.757812 323.265625 120.792969 323.59375 120.792969 323.929688 L 120.792969 369.085938 C 120.792969 369.417969 120.757812 369.75 120.691406 370.078125 C 120.628906 370.40625 120.53125 370.722656 120.402344 371.03125 C 120.277344 371.339844 120.121094 371.636719 119.933594 371.914062 C 119.75 372.191406 119.539062 372.449219 119.300781 372.683594 C 119.066406 372.921875 118.808594 373.132812 118.53125 373.316406 C 118.253906 373.503906 117.960938 373.660156 117.652344 373.789062 C 117.34375 373.914062 117.027344 374.011719 116.699219 374.078125 C 116.371094 374.140625 116.039062 374.175781 115.707031 374.175781 L 107.660156 374.175781 C 107.324219 374.175781 106.992188 374.140625 106.667969 374.078125 C 106.339844 374.011719 106.019531 373.914062 105.710938 373.789062 C 105.402344 373.660156 105.109375 373.503906 104.832031 373.316406 C 104.554688 373.132812 104.300781 372.921875 104.0625 372.683594 C 103.828125 372.449219 103.617188 372.191406 103.429688 371.914062 C 103.246094 371.636719 103.089844 371.339844 102.960938 371.03125 C 102.832031 370.722656 102.738281 370.40625 102.671875 370.078125 C 102.605469 369.75 102.574219 369.417969 102.574219 369.085938 L 102.574219 323.929688 C 102.574219 323.59375 102.605469 323.265625 102.671875 322.9375 C 102.738281 322.609375 102.832031 322.289062 102.960938 321.980469 C 103.089844 321.671875 103.246094 321.378906 103.429688 321.101562 C 103.617188 320.824219 103.828125 320.566406 104.0625 320.332031 C 104.300781 320.09375 104.554688 319.882812 104.832031 319.695312 C 105.109375 319.511719 105.402344 319.355469 105.710938 319.226562 C 106.019531 319.097656 106.339844 319.003906 106.667969 318.9375 C 106.992188 318.871094 107.324219 318.839844 107.660156 318.839844 Z M 107.660156 318.839844 " fill-opacity="1" fill-rule="nonzero"/><path fill="#000000" d="M 141.632812 318.839844 L 149.128906 318.839844 C 149.480469 318.839844 149.832031 318.875 150.175781 318.941406 C 150.519531 319.011719 150.855469 319.113281 151.183594 319.246094 C 151.507812 319.382812 151.816406 319.546875 152.109375 319.742188 C 152.402344 319.941406 152.671875 320.164062 152.921875 320.410156 C 153.167969 320.660156 153.390625 320.929688 153.585938 321.226562 C 153.78125 321.519531 153.949219 321.828125 154.082031 322.152344 C 154.21875 322.476562 154.320312 322.8125 154.386719 323.160156 C 154.457031 323.503906 154.492188 323.855469 154.492188 324.207031 L 154.492188 368.808594 C 154.492188 369.160156 154.457031 369.507812 154.386719 369.855469 C 154.320312 370.199219 154.21875 370.535156 154.082031 370.863281 C 153.949219 371.1875 153.78125 371.496094 153.585938 371.789062 C 153.390625 372.082031 153.167969 372.355469 152.921875 372.601562 C 152.671875 372.851562 152.402344 373.074219 152.109375 373.269531 C 151.816406 373.464844 151.507812 373.632812 151.183594 373.765625 C 150.855469 373.902344 150.519531 374.003906 150.175781 374.070312 C 149.832031 374.140625 149.480469 374.175781 149.128906 374.175781 L 141.632812 374.175781 C 141.28125 374.175781 140.933594 374.140625 140.589844 374.070312 C 140.242188 374.003906 139.910156 373.902344 139.582031 373.765625 C 139.257812 373.632812 138.949219 373.464844 138.65625 373.269531 C 138.363281 373.074219 138.09375 372.851562 137.84375 372.601562 C 137.59375 372.355469 137.371094 372.082031 137.175781 371.789062 C 136.980469 371.496094 136.816406 371.1875 136.683594 370.863281 C 136.546875 370.535156 136.445312 370.199219 136.375 369.855469 C 136.308594 369.507812 136.273438 369.160156 136.273438 368.808594 L 136.273438 324.207031 C 136.273438 323.855469 136.308594 323.503906 136.375 323.160156 C 136.445312 322.8125 136.546875 322.476562 136.683594 322.152344 C 136.816406 321.828125 136.980469 321.519531 137.175781 321.226562 C 137.371094 320.933594 137.59375 320.660156 137.84375 320.410156 C 138.09375 320.164062 138.363281 319.941406 138.65625 319.742188 C 138.949219 319.546875 139.257812 319.382812 139.582031 319.246094 C 139.910156 319.113281 140.242188 319.011719 140.589844 318.941406 C 140.933594 318.875 141.28125 318.839844 141.632812 318.839844 Z M 141.632812 318.839844 " fill-opacity="1" fill-rule="nonzero"/><path fill="#000000" d="M 177.652344 293.355469 L 181.984375 293.355469 C 182.441406 293.355469 182.894531 293.398438 183.339844 293.488281 C 183.785156 293.578125 184.222656 293.710938 184.640625 293.882812 C 185.0625 294.058594 185.464844 294.273438 185.84375 294.527344 C 186.222656 294.78125 186.570312 295.070312 186.894531 295.390625 C 187.21875 295.714844 187.503906 296.066406 187.757812 296.445312 C 188.011719 296.824219 188.226562 297.226562 188.398438 297.644531 C 188.574219 298.066406 188.707031 298.503906 188.792969 298.949219 C 188.882812 299.398438 188.929688 299.851562 188.929688 300.308594 L 188.929688 406.917969 C 188.929688 407.375 188.882812 407.828125 188.792969 408.273438 C 188.707031 408.722656 188.574219 409.15625 188.398438 409.578125 C 188.226562 410 188.011719 410.402344 187.757812 410.78125 C 187.503906 411.160156 187.21875 411.511719 186.894531 411.832031 C 186.570312 412.15625 186.222656 412.445312 185.84375 412.699219 C 185.464844 412.953125 185.0625 413.167969 184.640625 413.339844 C 184.222656 413.515625 183.785156 413.648438 183.339844 413.734375 C 182.894531 413.824219 182.441406 413.871094 181.984375 413.871094 L 177.652344 413.871094 C 177.199219 413.871094 176.746094 413.824219 176.300781 413.734375 C 175.851562 413.648438 175.417969 413.515625 174.996094 413.339844 C 174.574219 413.167969 174.175781 412.953125 173.796875 412.699219 C 173.417969 412.445312 173.066406 412.15625 172.746094 411.832031 C 172.421875 411.511719 172.132812 411.160156 171.882812 410.78125 C 171.628906 410.402344 171.414062 410 171.238281 409.578125 C 171.066406 409.15625 170.933594 408.722656 170.84375 408.273438 C 170.753906 407.828125 170.710938 407.375 170.710938 406.917969 L 170.710938 300.308594 C 170.710938 299.851562 170.753906 299.398438 170.84375 298.949219 C 170.933594 298.503906 171.066406 298.066406 171.238281 297.644531 C 171.414062 297.226562 171.628906 296.824219 171.882812 296.445312 C 172.132812 296.066406 172.421875 295.714844 172.746094 295.390625 C 173.066406 295.070312 173.417969 294.78125 173.796875 294.527344 C 174.175781 294.273438 174.574219 294.058594 174.996094 293.882812 C 175.417969 293.710938 175.851562 293.578125 176.300781 293.488281 C 176.746094 293.398438 177.199219 293.355469 177.652344 293.355469 Z M 177.652344 293.355469 " fill-opacity="1" fill-rule="nonzero"/><path fill="#000000" d="M 213.488281 280.757812 L 214.992188 280.757812 C 215.542969 280.757812 216.085938 280.8125 216.625 280.921875 C 217.164062 281.027344 217.683594 281.1875 218.191406 281.394531 C 218.699219 281.605469 219.179688 281.863281 219.636719 282.167969 C 220.09375 282.472656 220.515625 282.820312 220.902344 283.210938 C 221.289062 283.597656 221.636719 284.019531 221.941406 284.476562 C 222.246094 284.933594 222.503906 285.417969 222.714844 285.925781 C 222.921875 286.429688 223.082031 286.953125 223.1875 287.492188 C 223.296875 288.03125 223.351562 288.578125 223.351562 289.125 L 223.351562 427.695312 C 223.351562 428.246094 223.296875 428.789062 223.1875 429.328125 C 223.082031 429.867188 222.921875 430.390625 222.714844 430.898438 C 222.503906 431.40625 222.246094 431.886719 221.941406 432.34375 C 221.636719 432.800781 221.289062 433.222656 220.902344 433.613281 C 220.515625 434 220.09375 434.347656 219.636719 434.652344 C 219.179688 434.957031 218.699219 435.214844 218.191406 435.425781 C 217.683594 435.636719 217.164062 435.792969 216.625 435.902344 C 216.085938 436.007812 215.542969 436.0625 214.992188 436.0625 L 213.488281 436.0625 C 212.941406 436.0625 212.398438 436.007812 211.859375 435.902344 C 211.320312 435.792969 210.796875 435.636719 210.289062 435.425781 C 209.785156 435.214844 209.300781 434.957031 208.847656 434.652344 C 208.390625 434.347656 207.96875 434 207.582031 433.613281 C 207.191406 433.222656 206.847656 432.800781 206.539062 432.34375 C 206.234375 431.886719 205.980469 431.40625 205.769531 430.898438 C 205.558594 430.390625 205.398438 429.867188 205.292969 429.328125 C 205.1875 428.789062 205.132812 428.246094 205.132812 427.695312 L 205.132812 289.125 C 205.132812 288.578125 205.1875 288.03125 205.292969 287.492188 C 205.398438 286.953125 205.558594 286.429688 205.769531 285.925781 C 205.980469 285.417969 206.234375 284.933594 206.539062 284.476562 C 206.847656 284.019531 207.191406 283.597656 207.582031 283.210938 C 207.96875 282.820312 208.390625 282.472656 208.847656 282.167969 C 209.300781 281.863281 209.785156 281.605469 210.289062 281.394531 C 210.796875 281.1875 211.320312 281.027344 211.859375 280.921875 C 212.398438 280.8125 212.941406 280.757812 213.488281 280.757812 Z M 213.488281 280.757812 " fill-opacity="1" fill-rule="nonzero"/><path fill="#000000" d="M 248.570312 262.148438 L 248.753906 262.148438 C 249.347656 262.148438 249.933594 262.207031 250.515625 262.324219 C 251.09375 262.4375 251.660156 262.609375 252.207031 262.835938 C 252.753906 263.0625 253.273438 263.34375 253.765625 263.671875 C 254.257812 264 254.710938 264.375 255.128906 264.792969 C 255.550781 265.214844 255.921875 265.667969 256.253906 266.164062 C 256.582031 266.65625 256.859375 267.175781 257.085938 267.722656 C 257.3125 268.269531 257.484375 268.835938 257.597656 269.417969 C 257.714844 269.996094 257.773438 270.585938 257.773438 271.179688 L 257.773438 452.410156 C 257.773438 453.003906 257.714844 453.589844 257.597656 454.171875 C 257.484375 454.753906 257.3125 455.320312 257.085938 455.867188 C 256.859375 456.414062 256.582031 456.933594 256.253906 457.425781 C 255.921875 457.917969 255.550781 458.375 255.128906 458.796875 C 254.710938 459.214844 254.257812 459.589844 253.765625 459.917969 C 253.273438 460.246094 252.753906 460.523438 252.207031 460.753906 C 251.660156 460.980469 251.09375 461.148438 250.515625 461.265625 C 249.933594 461.382812 249.347656 461.4375 248.753906 461.4375 L 248.570312 461.4375 C 247.980469 461.4375 247.390625 461.382812 246.8125 461.265625 C 246.230469 461.148438 245.667969 460.980469 245.121094 460.75 C 244.574219 460.523438 244.054688 460.246094 243.5625 459.917969 C 243.070312 459.589844 242.613281 459.214844 242.195312 458.796875 C 241.777344 458.375 241.402344 457.917969 241.074219 457.425781 C 240.746094 456.933594 240.46875 456.414062 240.242188 455.867188 C 240.015625 455.320312 239.84375 454.753906 239.726562 454.171875 C 239.613281 453.589844 239.554688 453.003906 239.554688 452.410156 L 239.554688 271.179688 C 239.554688 270.585938 239.613281 269.996094 239.726562 269.417969 C 239.84375 268.835938 240.015625 268.269531 240.242188 267.722656 C 240.46875 267.175781 240.746094 266.65625 241.074219 266.164062 C 241.402344 265.667969 241.777344 265.214844 242.195312 264.792969 C 242.613281 264.375 243.070312 264 243.5625 263.671875 C 244.054688 263.34375 244.574219 263.0625 245.121094 262.835938 C 245.667969 262.609375 246.230469 262.4375 246.8125 262.324219 C 247.390625 262.207031 247.980469 262.148438 248.570312 262.148438 Z M 248.570312 262.148438 " fill-opacity="1" fill-rule="nonzero"/><path fill="#000000" d="M 282.902344 245.417969 L 283.300781 245.417969 C 283.886719 245.417969 284.464844 245.472656 285.039062 245.589844 C 285.613281 245.703125 286.167969 245.871094 286.710938 246.097656 C 287.25 246.320312 287.761719 246.59375 288.25 246.921875 C 288.734375 247.246094 289.1875 247.617188 289.597656 248.03125 C 290.011719 248.445312 290.382812 248.894531 290.707031 249.382812 C 291.03125 249.867188 291.304688 250.382812 291.53125 250.921875 C 291.753906 251.464844 291.921875 252.023438 292.039062 252.597656 C 292.152344 253.171875 292.207031 253.75 292.207031 254.335938 L 292.207031 460.746094 C 292.207031 461.332031 292.152344 461.914062 292.039062 462.488281 C 291.921875 463.0625 291.753906 463.621094 291.53125 464.160156 C 291.304688 464.703125 291.03125 465.214844 290.707031 465.703125 C 290.382812 466.191406 290.011719 466.640625 289.597656 467.054688 C 289.1875 467.46875 288.734375 467.839844 288.25 468.164062 C 287.761719 468.488281 287.25 468.765625 286.710938 468.988281 C 286.167969 469.210938 285.613281 469.382812 285.039062 469.496094 C 284.464844 469.609375 283.886719 469.667969 283.300781 469.667969 L 282.902344 469.667969 C 282.316406 469.667969 281.734375 469.609375 281.164062 469.496094 C 280.589844 469.382812 280.03125 469.210938 279.492188 468.988281 C 278.949219 468.765625 278.4375 468.488281 277.949219 468.164062 C 277.464844 467.839844 277.015625 467.46875 276.601562 467.054688 C 276.1875 466.640625 275.816406 466.191406 275.492188 465.703125 C 275.167969 465.214844 274.894531 464.703125 274.667969 464.160156 C 274.445312 463.621094 274.277344 463.0625 274.164062 462.488281 C 274.046875 461.914062 273.992188 461.332031 273.992188 460.746094 L 273.992188 254.335938 C 273.992188 253.75 274.046875 253.171875 274.164062 252.597656 C 274.277344 252.023438 274.445312 251.464844 274.667969 250.921875 C 274.894531 250.382812 275.167969 249.867188 275.492188 249.382812 C 275.816406 248.894531 276.1875 248.445312 276.601562 248.03125 C 277.015625 247.617188 277.464844 247.246094 277.949219 246.921875 C 278.4375 246.59375 278.949219 246.320312 279.492188 246.097656 C 280.03125 245.871094 280.589844 245.703125 281.164062 245.589844 C 281.734375 245.472656 282.316406 245.417969 282.902344 245.417969 Z M 282.902344 245.417969 " fill-opacity="1" fill-rule="nonzero"/><path fill="#000000" d="M 315.878906 269.484375 L 319.164062 269.484375 C 319.65625 269.484375 320.140625 269.535156 320.621094 269.628906 C 321.101562 269.726562 321.570312 269.867188 322.023438 270.054688 C 322.476562 270.242188 322.90625 270.472656 323.3125 270.746094 C 323.71875 271.019531 324.097656 271.328125 324.445312 271.675781 C 324.789062 272.023438 325.101562 272.398438 325.371094 272.808594 C 325.644531 273.214844 325.875 273.648438 326.0625 274.101562 C 326.25 274.554688 326.390625 275.019531 326.488281 275.503906 C 326.582031 275.984375 326.628906 276.46875 326.628906 276.960938 L 326.628906 447.550781 C 326.628906 448.042969 326.582031 448.527344 326.488281 449.007812 C 326.390625 449.492188 326.25 449.957031 326.0625 450.410156 C 325.875 450.863281 325.644531 451.296875 325.371094 451.703125 C 325.101562 452.113281 324.789062 452.488281 324.445312 452.835938 C 324.097656 453.183594 323.71875 453.492188 323.3125 453.765625 C 322.90625 454.039062 322.476562 454.269531 322.023438 454.457031 C 321.570312 454.644531 321.101562 454.785156 320.621094 454.882812 C 320.140625 454.976562 319.65625 455.027344 319.164062 455.027344 L 315.878906 455.027344 C 315.386719 455.027344 314.902344 454.976562 314.421875 454.882812 C 313.941406 454.785156 313.472656 454.644531 313.023438 454.457031 C 312.570312 454.269531 312.136719 454.039062 311.730469 453.765625 C 311.324219 453.492188 310.945312 453.183594 310.601562 452.835938 C 310.253906 452.488281 309.945312 452.113281 309.671875 451.703125 C 309.398438 451.296875 309.167969 450.863281 308.980469 450.410156 C 308.792969 449.957031 308.652344 449.492188 308.558594 449.007812 C 308.460938 448.527344 308.414062 448.042969 308.414062 447.550781 L 308.414062 276.960938 C 308.414062 276.46875 308.460938 275.984375 308.558594 275.503906 C 308.652344 275.019531 308.792969 274.554688 308.980469 274.101562 C 309.167969 273.648438 309.398438 273.214844 309.671875 272.808594 C 309.945312 272.398438 310.253906 272.023438 310.601562 271.675781 C 310.945312 271.328125 311.324219 271.019531 311.730469 270.746094 C 312.136719 270.472656 312.570312 270.242188 313.023438 270.054688 C 313.472656 269.867188 313.941406 269.726562 314.421875 269.628906 C 314.902344 269.535156 315.386719 269.484375 315.878906 269.484375 Z M 315.878906 269.484375 " fill-opacity="1" fill-rule="nonzero"/><path fill="#000000" d="M 350.347656 299.089844 L 353.324219 299.089844 C 353.828125 299.089844 354.320312 299.140625 354.8125 299.238281 C 355.304688 299.335938 355.78125 299.480469 356.242188 299.671875 C 356.703125 299.863281 357.144531 300.097656 357.558594 300.378906 C 357.976562 300.65625 358.359375 300.972656 358.714844 301.324219 C 359.066406 301.679688 359.382812 302.066406 359.660156 302.480469 C 359.9375 302.898438 360.171875 303.339844 360.363281 303.800781 C 360.554688 304.261719 360.699219 304.742188 360.796875 305.230469 C 360.894531 305.722656 360.945312 306.21875 360.945312 306.71875 L 360.945312 428.417969 C 360.945312 428.921875 360.894531 429.414062 360.796875 429.90625 C 360.699219 430.398438 360.554688 430.875 360.363281 431.339844 C 360.171875 431.800781 359.9375 432.242188 359.660156 432.65625 C 359.382812 433.074219 359.066406 433.457031 358.714844 433.8125 C 358.359375 434.167969 357.976562 434.484375 357.558594 434.761719 C 357.144531 435.039062 356.703125 435.273438 356.242188 435.464844 C 355.78125 435.660156 355.304688 435.804688 354.8125 435.902344 C 354.320312 436 353.828125 436.046875 353.324219 436.046875 L 350.347656 436.046875 C 349.847656 436.046875 349.351562 436 348.859375 435.902344 C 348.371094 435.804688 347.894531 435.660156 347.429688 435.464844 C 346.96875 435.273438 346.53125 435.039062 346.113281 434.761719 C 345.699219 434.484375 345.3125 434.167969 344.960938 433.8125 C 344.605469 433.457031 344.289062 433.074219 344.011719 432.65625 C 343.734375 432.242188 343.5 431.800781 343.308594 431.339844 C 343.117188 430.875 342.972656 430.398438 342.875 429.90625 C 342.777344 429.414062 342.726562 428.921875 342.726562 428.417969 L 342.726562 306.71875 C 342.726562 306.21875 342.777344 305.722656 342.875 305.230469 C 342.972656 304.742188 343.117188 304.261719 343.308594 303.800781 C 343.5 303.339844 343.734375 302.898438 344.011719 302.480469 C 344.289062 302.066406 344.605469 301.679688 344.960938 301.324219 C 345.3125 300.972656 345.699219 300.65625 346.113281 300.378906 C 346.53125 300.097656 346.96875 299.863281 347.429688 299.671875 C 347.894531 299.480469 348.371094 299.335938 348.859375 299.238281 C 349.351562 299.140625 349.847656 299.089844 350.347656 299.089844 Z M 350.347656 299.089844 " fill-opacity="1" fill-rule="nonzero"/><path fill="#000000" d="M 384.398438 314.703125 L 388.117188 314.703125 C 388.59375 314.703125 389.0625 314.75 389.53125 314.839844 C 389.996094 314.933594 390.449219 315.074219 390.890625 315.253906 C 391.332031 315.4375 391.75 315.660156 392.144531 315.925781 C 392.539062 316.191406 392.90625 316.492188 393.242188 316.828125 C 393.578125 317.164062 393.878906 317.53125 394.144531 317.929688 C 394.410156 318.324219 394.632812 318.742188 394.816406 319.183594 C 394.996094 319.625 395.132812 320.078125 395.226562 320.546875 C 395.320312 321.011719 395.367188 321.484375 395.367188 321.960938 L 395.367188 408.839844 C 395.367188 409.316406 395.320312 409.789062 395.226562 410.257812 C 395.132812 410.722656 394.996094 411.179688 394.816406 411.617188 C 394.632812 412.058594 394.410156 412.476562 394.144531 412.875 C 393.878906 413.269531 393.578125 413.636719 393.242188 413.972656 C 392.90625 414.3125 392.539062 414.613281 392.144531 414.875 C 391.75 415.140625 391.332031 415.363281 390.890625 415.546875 C 390.449219 415.730469 389.996094 415.867188 389.53125 415.960938 C 389.0625 416.054688 388.59375 416.101562 388.117188 416.101562 L 384.398438 416.101562 C 383.921875 416.101562 383.453125 416.054688 382.984375 415.960938 C 382.519531 415.867188 382.066406 415.730469 381.625 415.546875 C 381.183594 415.363281 380.765625 415.140625 380.371094 414.875 C 379.976562 414.613281 379.609375 414.3125 379.273438 413.972656 C 378.9375 413.636719 378.636719 413.269531 378.371094 412.875 C 378.105469 412.476562 377.882812 412.058594 377.703125 411.617188 C 377.519531 411.179688 377.382812 410.722656 377.289062 410.257812 C 377.195312 409.789062 377.148438 409.316406 377.148438 408.839844 L 377.148438 321.960938 C 377.148438 321.484375 377.195312 321.011719 377.289062 320.546875 C 377.382812 320.078125 377.519531 319.625 377.703125 319.183594 C 377.882812 318.742188 378.105469 318.324219 378.371094 317.929688 C 378.636719 317.53125 378.9375 317.164062 379.273438 316.828125 C 379.609375 316.492188 379.976562 316.191406 380.371094 315.925781 C 380.765625 315.660156 381.183594 315.4375 381.625 315.253906 C 382.066406 315.074219 382.519531 314.933594 382.984375 314.839844 C 383.453125 314.75 383.921875 314.703125 384.398438 314.703125 Z M 384.398438 314.703125 " fill-opacity="1" fill-rule="nonzero"/><path fill="#000000" d="M 417.253906 340.984375 L 424.105469 340.984375 C 424.476562 340.984375 424.847656 341.023438 425.214844 341.09375 C 425.578125 341.167969 425.933594 341.277344 426.28125 341.417969 C 426.625 341.5625 426.953125 341.738281 427.261719 341.945312 C 427.574219 342.152344 427.859375 342.386719 428.125 342.652344 C 428.386719 342.917969 428.621094 343.203125 428.832031 343.515625 C 429.039062 343.824219 429.210938 344.152344 429.355469 344.5 C 429.5 344.84375 429.605469 345.199219 429.679688 345.566406 C 429.75 345.933594 429.789062 346.300781 429.789062 346.675781 L 429.789062 397.550781 C 429.789062 397.925781 429.75 398.296875 429.679688 398.664062 C 429.605469 399.027344 429.5 399.382812 429.355469 399.730469 C 429.210938 400.074219 429.039062 400.402344 428.832031 400.714844 C 428.621094 401.023438 428.386719 401.3125 428.125 401.574219 C 427.859375 401.839844 427.574219 402.074219 427.261719 402.285156 C 426.953125 402.492188 426.625 402.667969 426.28125 402.808594 C 425.933594 402.953125 425.578125 403.058594 425.214844 403.132812 C 424.847656 403.207031 424.476562 403.242188 424.105469 403.242188 L 417.253906 403.242188 C 416.882812 403.242188 416.511719 403.207031 416.144531 403.132812 C 415.78125 403.058594 415.425781 402.953125 415.078125 402.808594 C 414.734375 402.667969 414.40625 402.492188 414.097656 402.285156 C 413.785156 402.074219 413.5 401.839844 413.234375 401.574219 C 412.972656 401.3125 412.734375 401.023438 412.527344 400.714844 C 412.320312 400.402344 412.148438 400.074219 412.003906 399.730469 C 411.859375 399.382812 411.753906 399.027344 411.679688 398.664062 C 411.609375 398.296875 411.570312 397.925781 411.570312 397.550781 L 411.570312 346.675781 C 411.570312 346.300781 411.609375 345.933594 411.679688 345.566406 C 411.753906 345.199219 411.859375 344.84375 412.003906 344.5 C 412.148438 344.152344 412.320312 343.824219 412.527344 343.515625 C 412.734375 343.203125 412.972656 342.917969 413.234375 342.652344 C 413.5 342.386719 413.785156 342.152344 414.097656 341.945312 C 414.40625 341.738281 414.734375 341.5625 415.078125 341.417969 C 415.425781 341.277344 415.78125 341.167969 416.144531 341.09375 C 416.511719 341.023438 416.882812 340.984375 417.253906 340.984375 Z M 417.253906 340.984375 " fill-opacity="1" fill-rule="nonzero"/><path fill="#000000" d="M 451.753906 340.984375 L 458.480469 340.984375 C 458.859375 340.984375 459.230469 341.023438 459.601562 341.097656 C 459.972656 341.171875 460.332031 341.277344 460.679688 341.421875 C 461.027344 341.566406 461.359375 341.746094 461.671875 341.957031 C 461.984375 342.164062 462.277344 342.402344 462.542969 342.671875 C 462.808594 342.9375 463.046875 343.226562 463.257812 343.542969 C 463.464844 343.855469 463.644531 344.1875 463.789062 344.535156 C 463.933594 344.886719 464.042969 345.246094 464.113281 345.617188 C 464.1875 345.984375 464.226562 346.359375 464.226562 346.738281 L 464.226562 398.78125 C 464.226562 399.160156 464.1875 399.535156 464.113281 399.90625 C 464.042969 400.273438 463.933594 400.636719 463.789062 400.984375 C 463.644531 401.332031 463.464844 401.664062 463.257812 401.976562 C 463.046875 402.292969 462.808594 402.582031 462.542969 402.851562 C 462.277344 403.117188 461.984375 403.355469 461.671875 403.566406 C 461.359375 403.773438 461.027344 403.953125 460.679688 404.097656 C 460.332031 404.242188 459.972656 404.351562 459.601562 404.425781 C 459.230469 404.496094 458.859375 404.535156 458.480469 404.535156 L 451.753906 404.535156 C 451.375 404.535156 451.003906 404.496094 450.632812 404.425781 C 450.261719 404.351562 449.902344 404.242188 449.554688 404.097656 C 449.207031 403.953125 448.875 403.773438 448.5625 403.566406 C 448.246094 403.355469 447.957031 403.117188 447.691406 402.851562 C 447.425781 402.582031 447.1875 402.292969 446.976562 401.976562 C 446.765625 401.664062 446.589844 401.332031 446.445312 400.984375 C 446.300781 400.636719 446.191406 400.273438 446.117188 399.90625 C 446.046875 399.535156 446.007812 399.160156 446.007812 398.78125 L 446.007812 346.738281 C 446.007812 346.359375 446.046875 345.984375 446.117188 345.617188 C 446.191406 345.246094 446.300781 344.886719 446.445312 344.535156 C 446.589844 344.1875 446.765625 343.855469 446.976562 343.542969 C 447.1875 343.226562 447.425781 342.9375 447.691406 342.671875 C 447.957031 342.402344 448.246094 342.164062 448.5625 341.957031 C 448.875 341.746094 449.207031 341.566406 449.554688 341.421875 C 449.902344 341.277344 450.261719 341.171875 450.632812 341.097656 C 451.003906 341.023438 451.375 340.984375 451.753906 340.984375 Z M 451.753906 340.984375 " fill-opacity="1" fill-rule="nonzero"/><path fill="#000000" d="M 488.695312 314.703125 L 492.5625 314.703125 C 493.035156 314.703125 493.5 314.75 493.964844 314.839844 C 494.425781 314.933594 494.875 315.066406 495.308594 315.25 C 495.746094 315.429688 496.15625 315.652344 496.550781 315.914062 C 496.941406 316.175781 497.304688 316.472656 497.636719 316.804688 C 497.96875 317.140625 498.265625 317.503906 498.527344 317.894531 C 498.789062 318.285156 499.011719 318.699219 499.191406 319.136719 C 499.371094 319.570312 499.507812 320.019531 499.601562 320.484375 C 499.691406 320.945312 499.738281 321.414062 499.738281 321.882812 L 499.738281 406.6875 C 499.738281 407.160156 499.691406 407.625 499.601562 408.089844 C 499.507812 408.550781 499.371094 409 499.191406 409.4375 C 499.011719 409.871094 498.789062 410.285156 498.527344 410.679688 C 498.265625 411.070312 497.96875 411.433594 497.636719 411.765625 C 497.304688 412.101562 496.941406 412.398438 496.550781 412.660156 C 496.15625 412.921875 495.746094 413.144531 495.308594 413.324219 C 494.875 413.503906 494.425781 413.640625 493.964844 413.730469 C 493.5 413.824219 493.035156 413.871094 492.5625 413.871094 L 488.695312 413.871094 C 488.222656 413.871094 487.757812 413.824219 487.292969 413.730469 C 486.832031 413.640625 486.382812 413.503906 485.949219 413.324219 C 485.511719 413.144531 485.101562 412.921875 484.707031 412.660156 C 484.316406 412.398438 483.953125 412.101562 483.621094 411.765625 C 483.289062 411.433594 482.992188 411.070312 482.730469 410.679688 C 482.46875 410.285156 482.246094 409.871094 482.066406 409.4375 C 481.886719 409 481.75 408.550781 481.660156 408.089844 C 481.566406 407.625 481.519531 407.160156 481.519531 406.6875 L 481.519531 321.882812 C 481.519531 321.414062 481.566406 320.945312 481.660156 320.484375 C 481.75 320.019531 481.886719 319.570312 482.066406 319.136719 C 482.246094 318.699219 482.46875 318.285156 482.730469 317.894531 C 482.992188 317.503906 483.289062 317.140625 483.621094 316.804688 C 483.953125 316.472656 484.316406 316.175781 484.707031 315.914062 C 485.101562 315.652344 485.511719 315.429688 485.949219 315.25 C 486.382812 315.066406 486.832031 314.933594 487.292969 314.839844 C 487.757812 314.75 488.222656 314.703125 488.695312 314.703125 Z M 488.695312 314.703125 " fill-opacity="1" fill-rule="nonzero"/><path fill="#000000" d="M 524.265625 293.355469 L 525.863281 293.355469 C 526.410156 293.355469 526.949219 293.410156 527.484375 293.515625 C 528.019531 293.621094 528.539062 293.78125 529.042969 293.988281 C 529.550781 294.199219 530.027344 294.453125 530.480469 294.757812 C 530.933594 295.0625 531.355469 295.40625 531.742188 295.792969 C 532.125 296.179688 532.472656 296.597656 532.773438 297.054688 C 533.078125 297.507812 533.332031 297.988281 533.542969 298.492188 C 533.75 298.996094 533.910156 299.515625 534.015625 300.050781 C 534.121094 300.589844 534.175781 301.128906 534.175781 301.675781 L 534.175781 428.648438 C 534.175781 429.195312 534.121094 429.738281 534.015625 430.273438 C 533.910156 430.808594 533.75 431.328125 533.542969 431.832031 C 533.332031 432.339844 533.078125 432.816406 532.773438 433.273438 C 532.472656 433.726562 532.125 434.148438 531.742188 434.53125 C 531.355469 434.917969 530.933594 435.265625 530.480469 435.566406 C 530.027344 435.871094 529.550781 436.128906 529.042969 436.335938 C 528.539062 436.546875 528.019531 436.703125 527.484375 436.808594 C 526.949219 436.917969 526.410156 436.96875 525.863281 436.96875 L 524.265625 436.96875 C 523.722656 436.96875 523.179688 436.917969 522.644531 436.808594 C 522.109375 436.703125 521.589844 436.546875 521.085938 436.335938 C 520.582031 436.128906 520.105469 435.871094 519.652344 435.566406 C 519.195312 435.265625 518.777344 434.917969 518.390625 434.53125 C 518.003906 434.148438 517.660156 433.726562 517.359375 433.273438 C 517.054688 432.816406 516.800781 432.339844 516.589844 431.832031 C 516.382812 431.328125 516.222656 430.808594 516.117188 430.273438 C 516.011719 429.738281 515.957031 429.195312 515.957031 428.648438 L 515.957031 301.675781 C 515.957031 301.128906 516.011719 300.589844 516.117188 300.050781 C 516.222656 299.515625 516.382812 298.996094 516.589844 298.492188 C 516.800781 297.988281 517.054688 297.507812 517.359375 297.054688 C 517.660156 296.597656 518.003906 296.179688 518.390625 295.792969 C 518.777344 295.40625 519.195312 295.0625 519.652344 294.757812 C 520.105469 294.453125 520.582031 294.199219 521.085938 293.988281 C 521.589844 293.78125 522.109375 293.621094 522.644531 293.515625 C 523.179688 293.410156 523.722656 293.355469 524.265625 293.355469 Z M 524.265625 293.355469 " fill-opacity="1" fill-rule="nonzero"/><path fill="#000000" d="M 557.414062 280.757812 L 559.289062 280.757812 C 559.824219 280.757812 560.355469 280.8125 560.882812 280.917969 C 561.410156 281.019531 561.917969 281.175781 562.414062 281.382812 C 562.910156 281.585938 563.382812 281.839844 563.828125 282.136719 C 564.273438 282.4375 564.6875 282.777344 565.066406 283.15625 C 565.445312 283.535156 565.785156 283.949219 566.082031 284.394531 C 566.378906 284.84375 566.632812 285.3125 566.835938 285.808594 C 567.042969 286.304688 567.199219 286.816406 567.300781 287.34375 C 567.40625 287.871094 567.460938 288.402344 567.460938 288.941406 L 567.460938 439.628906 C 567.460938 440.167969 567.40625 440.699219 567.300781 441.226562 C 567.199219 441.753906 567.042969 442.265625 566.835938 442.761719 C 566.632812 443.257812 566.378906 443.730469 566.082031 444.175781 C 565.785156 444.625 565.445312 445.035156 565.066406 445.417969 C 564.6875 445.796875 564.273438 446.136719 563.828125 446.433594 C 563.382812 446.730469 562.910156 446.984375 562.414062 447.191406 C 561.917969 447.394531 561.410156 447.550781 560.882812 447.65625 C 560.355469 447.761719 559.824219 447.8125 559.289062 447.8125 L 557.414062 447.8125 C 556.878906 447.8125 556.347656 447.761719 555.820312 447.65625 C 555.292969 447.550781 554.78125 447.394531 554.289062 447.191406 C 553.792969 446.984375 553.320312 446.730469 552.875 446.433594 C 552.429688 446.136719 552.015625 445.796875 551.636719 445.417969 C 551.257812 445.035156 550.917969 444.625 550.621094 444.175781 C 550.320312 443.730469 550.070312 443.257812 549.863281 442.761719 C 549.660156 442.265625 549.503906 441.753906 549.398438 441.226562 C 549.296875 440.699219 549.242188 440.167969 549.242188 439.628906 L 549.242188 288.941406 C 549.242188 288.402344 549.296875 287.871094 549.398438 287.34375 C 549.503906 286.816406 549.660156 286.304688 549.863281 285.808594 C 550.070312 285.3125 550.320312 284.84375 550.621094 284.394531 C 550.917969 283.949219 551.257812 283.535156 551.636719 283.15625 C 552.015625 282.777344 552.429688 282.4375 552.875 282.136719 C 553.320312 281.839844 553.792969 281.585938 554.289062 281.382812 C 554.78125 281.175781 555.292969 281.019531 555.820312 280.917969 C 556.347656 280.8125 556.878906 280.757812 557.414062 280.757812 Z M 557.414062 280.757812 " fill-opacity="1" fill-rule="nonzero"/><path fill="#000000" d="M 592.035156 295.386719 L 593.511719 295.386719 C 594.058594 295.386719 594.605469 295.4375 595.144531 295.546875 C 595.683594 295.652344 596.207031 295.8125 596.714844 296.023438 C 597.222656 296.234375 597.703125 296.492188 598.160156 296.796875 C 598.617188 297.105469 599.039062 297.449219 599.429688 297.839844 C 599.816406 298.230469 600.164062 298.652344 600.46875 299.109375 C 600.777344 299.566406 601.035156 300.050781 601.246094 300.558594 C 601.453125 301.066406 601.613281 301.59375 601.71875 302.132812 C 601.828125 302.671875 601.882812 303.21875 601.882812 303.765625 L 601.882812 422.050781 C 601.882812 422.601562 601.828125 423.148438 601.71875 423.6875 C 601.613281 424.226562 601.453125 424.75 601.246094 425.257812 C 601.035156 425.769531 600.777344 426.25 600.46875 426.707031 C 600.164062 427.167969 599.816406 427.589844 599.429688 427.980469 C 599.039062 428.367188 598.617188 428.714844 598.160156 429.019531 C 597.703125 429.328125 597.222656 429.585938 596.714844 429.796875 C 596.207031 430.007812 595.683594 430.164062 595.144531 430.273438 C 594.605469 430.378906 594.058594 430.433594 593.511719 430.433594 L 592.035156 430.433594 C 591.484375 430.433594 590.941406 430.378906 590.402344 430.273438 C 589.863281 430.164062 589.339844 430.007812 588.832031 429.796875 C 588.324219 429.585938 587.84375 429.328125 587.386719 429.019531 C 586.929688 428.714844 586.503906 428.367188 586.117188 427.980469 C 585.726562 427.589844 585.378906 427.167969 585.074219 426.707031 C 584.769531 426.25 584.511719 425.769531 584.300781 425.257812 C 584.089844 424.75 583.933594 424.226562 583.824219 423.6875 C 583.71875 423.148438 583.664062 422.601562 583.664062 422.050781 L 583.664062 303.765625 C 583.664062 303.21875 583.71875 302.671875 583.824219 302.132812 C 583.933594 301.59375 584.089844 301.066406 584.300781 300.558594 C 584.511719 300.050781 584.769531 299.566406 585.074219 299.109375 C 585.378906 298.652344 585.726562 298.230469 586.117188 297.839844 C 586.503906 297.449219 586.929688 297.105469 587.386719 296.796875 C 587.84375 296.492188 588.324219 296.234375 588.832031 296.023438 C 589.339844 295.8125 589.863281 295.652344 590.402344 295.546875 C 590.941406 295.4375 591.484375 295.386719 592.035156 295.386719 Z M 592.035156 295.386719 " fill-opacity="1" fill-rule="nonzero"/><g clip-path="url(#1062d1d45a)"><path fill="#000000" d="M 758.890625 474.925781 C 758.292969 474.925781 757.699219 474.867188 757.113281 474.75 C 756.527344 474.636719 755.957031 474.460938 755.40625 474.234375 C 754.851562 474.003906 754.328125 473.722656 753.832031 473.390625 C 753.332031 473.058594 752.875 472.679688 752.449219 472.253906 C 752.027344 471.832031 751.648438 471.371094 751.316406 470.875 C 750.984375 470.375 750.707031 469.851562 750.476562 469.296875 C 750.246094 468.742188 750.074219 468.171875 749.957031 467.585938 C 749.839844 467 749.78125 466.40625 749.78125 465.808594 L 749.78125 227.207031 C 749.78125 226.609375 749.839844 226.015625 749.957031 225.429688 C 750.074219 224.839844 750.246094 224.269531 750.476562 223.71875 C 750.707031 223.164062 750.984375 222.636719 751.316406 222.140625 C 751.648438 221.640625 752.027344 221.183594 752.449219 220.757812 C 752.875 220.335938 753.332031 219.957031 753.832031 219.625 C 754.328125 219.292969 754.851562 219.011719 755.40625 218.78125 C 755.957031 218.550781 756.527344 218.378906 757.113281 218.261719 C 757.699219 218.144531 758.292969 218.085938 758.890625 218.085938 C 759.488281 218.085938 760.082031 218.144531 760.667969 218.261719 C 761.253906 218.378906 761.824219 218.550781 762.378906 218.78125 C 762.929688 219.011719 763.453125 219.292969 763.953125 219.625 C 764.449219 219.957031 764.910156 220.335938 765.332031 220.757812 C 765.753906 221.183594 766.132812 221.640625 766.464844 222.140625 C 766.796875 222.636719 767.078125 223.164062 767.304688 223.71875 C 767.535156 224.269531 767.707031 224.839844 767.824219 225.429688 C 767.941406 226.015625 768 226.609375 768 227.207031 L 768 465.808594 C 768 466.40625 767.941406 467 767.824219 467.585938 C 767.707031 468.171875 767.535156 468.742188 767.304688 469.296875 C 767.078125 469.851562 766.796875 470.375 766.464844 470.875 C 766.132812 471.371094 765.753906 471.832031 765.332031 472.253906 C 764.910156 472.679688 764.449219 473.058594 763.953125 473.390625 C 763.453125 473.722656 762.929688 474.003906 762.378906 474.234375 C 761.824219 474.460938 761.253906 474.636719 760.667969 474.75 C 760.082031 474.867188 759.488281 474.925781 758.890625 474.925781 Z M 758.890625 474.925781 " fill-opacity="1" fill-rule="nonzero"/></g><path fill="#000000" d="M 725.285156 436.984375 L 723.65625 436.984375 C 723.109375 436.984375 722.570312 436.933594 722.039062 436.824219 C 721.503906 436.71875 720.984375 436.5625 720.480469 436.351562 C 719.976562 436.144531 719.5 435.890625 719.046875 435.585938 C 718.59375 435.28125 718.175781 434.9375 717.789062 434.554688 C 717.40625 434.167969 717.0625 433.75 716.757812 433.292969 C 716.457031 432.839844 716.203125 432.363281 715.992188 431.859375 C 715.785156 431.355469 715.628906 430.835938 715.519531 430.300781 C 715.414062 429.765625 715.359375 429.226562 715.359375 428.679688 L 715.359375 258.445312 C 715.359375 257.898438 715.414062 257.359375 715.519531 256.824219 C 715.628906 256.289062 715.785156 255.769531 715.992188 255.265625 C 716.199219 254.761719 716.457031 254.28125 716.757812 253.828125 C 717.0625 253.375 717.40625 252.957031 717.789062 252.570312 C 718.175781 252.183594 718.59375 251.839844 719.046875 251.539062 C 719.5 251.234375 719.976562 250.980469 720.480469 250.769531 C 720.984375 250.5625 721.503906 250.40625 722.039062 250.296875 C 722.570312 250.191406 723.109375 250.136719 723.65625 250.136719 L 725.285156 250.136719 C 725.828125 250.136719 726.367188 250.191406 726.902344 250.296875 C 727.4375 250.40625 727.953125 250.5625 728.457031 250.769531 C 728.960938 250.980469 729.4375 251.234375 729.890625 251.539062 C 730.34375 251.839844 730.765625 252.183594 731.148438 252.570312 C 731.535156 252.957031 731.878906 253.375 732.179688 253.828125 C 732.484375 254.28125 732.738281 254.761719 732.945312 255.265625 C 733.15625 255.769531 733.3125 256.289062 733.417969 256.824219 C 733.523438 257.359375 733.578125 257.898438 733.578125 258.445312 L 733.578125 428.679688 C 733.578125 429.226562 733.523438 429.765625 733.417969 430.300781 C 733.3125 430.835938 733.15625 431.355469 732.945312 431.859375 C 732.738281 432.363281 732.484375 432.839844 732.179688 433.292969 C 731.878906 433.75 731.535156 434.167969 731.148438 434.554688 C 730.765625 434.9375 730.34375 435.28125 729.890625 435.585938 C 729.4375 435.890625 728.960938 436.144531 728.457031 436.351562 C 727.953125 436.5625 727.4375 436.71875 726.902344 436.824219 C 726.367188 436.933594 725.828125 436.984375 725.285156 436.984375 Z M 725.285156 436.984375 " fill-opacity="1" fill-rule="nonzero"/><path fill="#000000" d="M 692.273438 413.960938 L 689.234375 413.960938 C 688.734375 413.960938 688.242188 413.914062 687.753906 413.816406 C 687.265625 413.71875 686.789062 413.574219 686.332031 413.382812 C 685.871094 413.191406 685.433594 412.960938 685.019531 412.683594 C 684.605469 412.40625 684.21875 412.089844 683.867188 411.738281 C 683.515625 411.382812 683.203125 411 682.925781 410.585938 C 682.648438 410.171875 682.414062 409.734375 682.222656 409.273438 C 682.03125 408.8125 681.890625 408.335938 681.792969 407.847656 C 681.695312 407.359375 681.644531 406.863281 681.644531 406.363281 L 681.644531 282.097656 C 681.644531 281.597656 681.695312 281.105469 681.792969 280.613281 C 681.890625 280.125 682.03125 279.652344 682.222656 279.191406 C 682.414062 278.730469 682.648438 278.292969 682.925781 277.875 C 683.203125 277.460938 683.515625 277.078125 683.867188 276.726562 C 684.222656 276.371094 684.605469 276.058594 685.019531 275.78125 C 685.433594 275.503906 685.871094 275.269531 686.332031 275.078125 C 686.789062 274.886719 687.265625 274.742188 687.753906 274.644531 C 688.242188 274.546875 688.734375 274.5 689.234375 274.5 L 692.273438 274.5 C 692.773438 274.5 693.265625 274.546875 693.753906 274.644531 C 694.242188 274.742188 694.71875 274.886719 695.179688 275.078125 C 695.640625 275.269531 696.078125 275.503906 696.492188 275.78125 C 696.90625 276.058594 697.289062 276.371094 697.640625 276.726562 C 697.992188 277.078125 698.308594 277.460938 698.585938 277.875 C 698.859375 278.292969 699.09375 278.730469 699.285156 279.191406 C 699.476562 279.652344 699.621094 280.125 699.71875 280.613281 C 699.8125 281.105469 699.863281 281.597656 699.863281 282.097656 L 699.863281 406.363281 C 699.863281 406.863281 699.8125 407.359375 699.71875 407.847656 C 699.621094 408.335938 699.476562 408.8125 699.285156 409.273438 C 699.09375 409.734375 698.859375 410.171875 698.585938 410.585938 C 698.308594 411 697.992188 411.382812 697.640625 411.738281 C 697.289062 412.089844 696.90625 412.40625 696.492188 412.683594 C 696.078125 412.960938 695.640625 413.191406 695.179688 413.382812 C 694.71875 413.574219 694.242188 413.71875 693.753906 413.816406 C 693.265625 413.914062 692.773438 413.960938 692.273438 413.960938 Z M 692.273438 413.960938 " fill-opacity="1" fill-rule="nonzero"/><path fill="#000000" d="M 660.339844 383.585938 L 652.292969 383.585938 C 651.960938 383.585938 651.628906 383.554688 651.300781 383.488281 C 650.972656 383.425781 650.65625 383.328125 650.347656 383.199219 C 650.039062 383.070312 649.746094 382.914062 649.46875 382.730469 C 649.191406 382.542969 648.933594 382.332031 648.699219 382.097656 C 648.460938 381.859375 648.25 381.601562 648.066406 381.324219 C 647.878906 381.046875 647.722656 380.753906 647.597656 380.445312 C 647.46875 380.136719 647.371094 379.816406 647.308594 379.488281 C 647.242188 379.164062 647.207031 378.832031 647.207031 378.496094 L 647.207031 333.34375 C 647.207031 333.007812 647.242188 332.675781 647.308594 332.347656 C 647.371094 332.019531 647.46875 331.703125 647.597656 331.394531 C 647.722656 331.085938 647.878906 330.792969 648.066406 330.515625 C 648.25 330.234375 648.460938 329.980469 648.699219 329.742188 C 648.933594 329.507812 649.191406 329.296875 649.46875 329.109375 C 649.746094 328.925781 650.039062 328.765625 650.347656 328.640625 C 650.65625 328.511719 650.972656 328.414062 651.300781 328.347656 C 651.628906 328.285156 651.960938 328.25 652.292969 328.25 L 660.339844 328.25 C 660.675781 328.25 661.007812 328.285156 661.332031 328.347656 C 661.660156 328.414062 661.980469 328.511719 662.289062 328.640625 C 662.597656 328.765625 662.890625 328.925781 663.167969 329.109375 C 663.445312 329.296875 663.699219 329.507812 663.9375 329.742188 C 664.171875 329.980469 664.382812 330.234375 664.570312 330.515625 C 664.753906 330.792969 664.910156 331.085938 665.039062 331.394531 C 665.167969 331.703125 665.261719 332.019531 665.328125 332.347656 C 665.394531 332.675781 665.425781 333.007812 665.425781 333.34375 L 665.425781 378.496094 C 665.425781 378.832031 665.394531 379.164062 665.328125 379.488281 C 665.261719 379.816406 665.167969 380.136719 665.039062 380.445312 C 664.910156 380.753906 664.753906 381.046875 664.570312 381.324219 C 664.382812 381.601562 664.171875 381.859375 663.9375 382.097656 C 663.699219 382.332031 663.445312 382.542969 663.167969 382.730469 C 662.890625 382.914062 662.597656 383.070312 662.289062 383.199219 C 661.980469 383.328125 661.660156 383.425781 661.332031 383.488281 C 661.007812 383.554688 660.675781 383.585938 660.339844 383.585938 Z M 660.339844 383.585938 " fill-opacity="1" fill-rule="nonzero"/><path fill="#000000" d="M 624.953125 403.242188 L 620.28125 403.242188 C 619.839844 403.242188 619.398438 403.199219 618.960938 403.113281 C 618.523438 403.027344 618.101562 402.898438 617.691406 402.726562 C 617.28125 402.554688 616.890625 402.347656 616.519531 402.101562 C 616.148438 401.851562 615.808594 401.570312 615.492188 401.257812 C 615.179688 400.941406 614.898438 400.597656 614.652344 400.226562 C 614.402344 399.859375 614.195312 399.46875 614.023438 399.054688 C 613.855469 398.644531 613.726562 398.21875 613.640625 397.785156 C 613.550781 397.347656 613.507812 396.90625 613.507812 396.460938 L 613.507812 321.46875 C 613.507812 321.023438 613.550781 320.582031 613.640625 320.144531 C 613.726562 319.710938 613.855469 319.285156 614.023438 318.875 C 614.195312 318.460938 614.402344 318.070312 614.652344 317.699219 C 614.898438 317.332031 615.179688 316.988281 615.492188 316.671875 C 615.808594 316.359375 616.148438 316.078125 616.519531 315.828125 C 616.890625 315.582031 617.28125 315.375 617.691406 315.203125 C 618.101562 315.03125 618.523438 314.902344 618.960938 314.816406 C 619.398438 314.730469 619.839844 314.6875 620.28125 314.6875 L 624.953125 314.6875 C 625.398438 314.6875 625.835938 314.730469 626.273438 314.816406 C 626.710938 314.902344 627.132812 315.03125 627.542969 315.203125 C 627.957031 315.375 628.347656 315.582031 628.714844 315.828125 C 629.085938 316.078125 629.425781 316.359375 629.742188 316.671875 C 630.054688 316.988281 630.335938 317.332031 630.585938 317.699219 C 630.832031 318.070312 631.039062 318.460938 631.210938 318.875 C 631.378906 319.285156 631.507812 319.710938 631.597656 320.144531 C 631.683594 320.582031 631.726562 321.023438 631.726562 321.46875 L 631.726562 396.460938 C 631.726562 396.90625 631.683594 397.347656 631.597656 397.785156 C 631.507812 398.21875 631.378906 398.644531 631.210938 399.054688 C 631.039062 399.46875 630.832031 399.859375 630.585938 400.226562 C 630.335938 400.597656 630.054688 400.941406 629.742188 401.257812 C 629.425781 401.570312 629.085938 401.851562 628.714844 402.101562 C 628.347656 402.347656 627.957031 402.554688 627.542969 402.726562 C 627.132812 402.898438 626.710938 403.027344 626.273438 403.113281 C 625.835938 403.199219 625.398438 403.242188 624.953125 403.242188 Z M 624.953125 403.242188 " fill-opacity="1" fill-rule="nonzero"/></svg>